<mxfile host="app.diagrams.net" modified="2023-09-02T10:01:27.806Z" agent="Mozilla/5.0 (X11; Ubuntu; Linux x86_64; rv:109.0) Gecko/20100101 Firefox/117.0" etag="N7NFBni_T1uPvYTnVuG9" version="21.7.1" type="github">
  <diagram id="C5RBs43oDa-KdzZeNtuy" name="Page-1">
    <mxGraphModel dx="3088" dy="913" grid="1" gridSize="10" guides="1" tooltips="1" connect="1" arrows="1" fold="1" page="1" pageScale="1" pageWidth="827" pageHeight="1169" background="#FFFFFF" math="0" shadow="0">
      <root>
        <mxCell id="WIyWlLk6GJQsqaUBKTNV-0" />
        <mxCell id="WIyWlLk6GJQsqaUBKTNV-1" parent="WIyWlLk6GJQsqaUBKTNV-0" />
        <mxCell id="WIyWlLk6GJQsqaUBKTNV-3" value="User login" style="rounded=1;whiteSpace=wrap;html=1;fontSize=12;glass=0;strokeWidth=1;shadow=0;" parent="WIyWlLk6GJQsqaUBKTNV-1" vertex="1">
          <mxGeometry x="-980" y="130" width="60" height="40" as="geometry" />
        </mxCell>
        <mxCell id="WIyWlLk6GJQsqaUBKTNV-7" value="Credentials error" style="rounded=1;whiteSpace=wrap;html=1;fontSize=12;glass=0;strokeWidth=1;shadow=0;" parent="WIyWlLk6GJQsqaUBKTNV-1" vertex="1">
          <mxGeometry x="-730" y="240" width="120" height="40" as="geometry" />
        </mxCell>
        <mxCell id="SSCyuXy0SERKJgrXDmF3-36" value="" style="edgeStyle=orthogonalEdgeStyle;rounded=0;orthogonalLoop=1;jettySize=auto;html=1;" parent="WIyWlLk6GJQsqaUBKTNV-1" source="WIyWlLk6GJQsqaUBKTNV-12" edge="1">
          <mxGeometry relative="1" as="geometry">
            <mxPoint x="-470" y="860" as="targetPoint" />
          </mxGeometry>
        </mxCell>
        <mxCell id="WIyWlLk6GJQsqaUBKTNV-12" value="Fill cover details" style="rounded=1;whiteSpace=wrap;html=1;fontSize=12;glass=0;strokeWidth=1;shadow=0;" parent="WIyWlLk6GJQsqaUBKTNV-1" vertex="1">
          <mxGeometry x="-540" y="670" width="120" height="40" as="geometry" />
        </mxCell>
        <mxCell id="SSCyuXy0SERKJgrXDmF3-0" value="" style="ellipse;whiteSpace=wrap;html=1;aspect=fixed;fillColor=#FF9999;" parent="WIyWlLk6GJQsqaUBKTNV-1" vertex="1">
          <mxGeometry x="-1230" y="180" width="20" height="20" as="geometry" />
        </mxCell>
        <mxCell id="SSCyuXy0SERKJgrXDmF3-26" value="" style="edgeStyle=orthogonalEdgeStyle;rounded=0;orthogonalLoop=1;jettySize=auto;html=1;" parent="WIyWlLk6GJQsqaUBKTNV-1" source="SSCyuXy0SERKJgrXDmF3-9" target="SSCyuXy0SERKJgrXDmF3-25" edge="1">
          <mxGeometry relative="1" as="geometry" />
        </mxCell>
        <mxCell id="SSCyuXy0SERKJgrXDmF3-9" value="Home Screen" style="rounded=1;whiteSpace=wrap;html=1;fontSize=12;glass=0;strokeWidth=1;shadow=0;" parent="WIyWlLk6GJQsqaUBKTNV-1" vertex="1">
          <mxGeometry x="-540" y="200" width="120" height="40" as="geometry" />
        </mxCell>
        <mxCell id="SSCyuXy0SERKJgrXDmF3-18" value="" style="edgeStyle=orthogonalEdgeStyle;rounded=0;orthogonalLoop=1;jettySize=auto;html=1;" parent="WIyWlLk6GJQsqaUBKTNV-1" target="SSCyuXy0SERKJgrXDmF3-9" edge="1">
          <mxGeometry relative="1" as="geometry">
            <mxPoint x="-620" y="150" as="sourcePoint" />
          </mxGeometry>
        </mxCell>
        <mxCell id="SSCyuXy0SERKJgrXDmF3-32" value="" style="edgeStyle=orthogonalEdgeStyle;rounded=0;orthogonalLoop=1;jettySize=auto;html=1;" parent="WIyWlLk6GJQsqaUBKTNV-1" target="WIyWlLk6GJQsqaUBKTNV-7" edge="1">
          <mxGeometry relative="1" as="geometry">
            <mxPoint x="-670" y="190.00000000000023" as="sourcePoint" />
          </mxGeometry>
        </mxCell>
        <mxCell id="SSCyuXy0SERKJgrXDmF3-12" value="Login&lt;br&gt;success ?" style="rhombus;whiteSpace=wrap;html=1;shadow=0;fontFamily=Helvetica;fontSize=12;align=center;strokeWidth=1;spacing=6;spacingTop=-4;" parent="WIyWlLk6GJQsqaUBKTNV-1" vertex="1">
          <mxGeometry x="-720" y="110" width="100" height="80" as="geometry" />
        </mxCell>
        <mxCell id="SSCyuXy0SERKJgrXDmF3-17" value="Yes" style="text;strokeColor=none;align=center;fillColor=none;html=1;verticalAlign=middle;whiteSpace=wrap;rounded=0;" parent="WIyWlLk6GJQsqaUBKTNV-1" vertex="1">
          <mxGeometry x="510" y="50" width="80" height="40" as="geometry" />
        </mxCell>
        <mxCell id="SSCyuXy0SERKJgrXDmF3-28" value="" style="edgeStyle=orthogonalEdgeStyle;rounded=0;orthogonalLoop=1;jettySize=auto;html=1;" parent="WIyWlLk6GJQsqaUBKTNV-1" source="SSCyuXy0SERKJgrXDmF3-25" target="SSCyuXy0SERKJgrXDmF3-27" edge="1">
          <mxGeometry relative="1" as="geometry" />
        </mxCell>
        <mxCell id="SSCyuXy0SERKJgrXDmF3-57" value="" style="edgeStyle=orthogonalEdgeStyle;rounded=0;orthogonalLoop=1;jettySize=auto;html=1;" parent="WIyWlLk6GJQsqaUBKTNV-1" source="SSCyuXy0SERKJgrXDmF3-25" target="SSCyuXy0SERKJgrXDmF3-56" edge="1">
          <mxGeometry relative="1" as="geometry" />
        </mxCell>
        <mxCell id="SSCyuXy0SERKJgrXDmF3-25" value="Choose Insurance type" style="rounded=1;whiteSpace=wrap;html=1;fontSize=12;glass=0;strokeWidth=1;shadow=0;" parent="WIyWlLk6GJQsqaUBKTNV-1" vertex="1">
          <mxGeometry x="-540" y="310" width="120" height="40" as="geometry" />
        </mxCell>
        <mxCell id="SSCyuXy0SERKJgrXDmF3-34" value="" style="edgeStyle=orthogonalEdgeStyle;rounded=0;orthogonalLoop=1;jettySize=auto;html=1;" parent="WIyWlLk6GJQsqaUBKTNV-1" source="SSCyuXy0SERKJgrXDmF3-27" target="SSCyuXy0SERKJgrXDmF3-29" edge="1">
          <mxGeometry relative="1" as="geometry" />
        </mxCell>
        <mxCell id="SSCyuXy0SERKJgrXDmF3-27" value="Choose cover type" style="rounded=1;whiteSpace=wrap;html=1;fontSize=12;glass=0;strokeWidth=1;shadow=0;" parent="WIyWlLk6GJQsqaUBKTNV-1" vertex="1">
          <mxGeometry x="-540" y="430" width="120" height="40" as="geometry" />
        </mxCell>
        <mxCell id="SSCyuXy0SERKJgrXDmF3-31" value="" style="edgeStyle=orthogonalEdgeStyle;rounded=0;orthogonalLoop=1;jettySize=auto;html=1;" parent="WIyWlLk6GJQsqaUBKTNV-1" source="SSCyuXy0SERKJgrXDmF3-29" target="WIyWlLk6GJQsqaUBKTNV-12" edge="1">
          <mxGeometry relative="1" as="geometry" />
        </mxCell>
        <mxCell id="SSCyuXy0SERKJgrXDmF3-29" value="Choose cover plan" style="rounded=1;whiteSpace=wrap;html=1;fontSize=12;glass=0;strokeWidth=1;shadow=0;" parent="WIyWlLk6GJQsqaUBKTNV-1" vertex="1">
          <mxGeometry x="-540" y="550" width="120" height="40" as="geometry" />
        </mxCell>
        <mxCell id="SSCyuXy0SERKJgrXDmF3-33" value="No" style="text;strokeColor=none;align=center;fillColor=none;html=1;verticalAlign=middle;whiteSpace=wrap;rounded=0;" parent="WIyWlLk6GJQsqaUBKTNV-1" vertex="1">
          <mxGeometry x="-690" y="190" width="80" height="40" as="geometry" />
        </mxCell>
        <mxCell id="SSCyuXy0SERKJgrXDmF3-65" value="" style="edgeStyle=orthogonalEdgeStyle;rounded=0;orthogonalLoop=1;jettySize=auto;html=1;" parent="WIyWlLk6GJQsqaUBKTNV-1" source="SSCyuXy0SERKJgrXDmF3-35" target="SSCyuXy0SERKJgrXDmF3-39" edge="1">
          <mxGeometry relative="1" as="geometry" />
        </mxCell>
        <mxCell id="SSCyuXy0SERKJgrXDmF3-35" value="View cover details" style="rounded=1;whiteSpace=wrap;html=1;fontSize=12;glass=0;strokeWidth=1;shadow=0;" parent="WIyWlLk6GJQsqaUBKTNV-1" vertex="1">
          <mxGeometry x="-670" y="830" width="120" height="40" as="geometry" />
        </mxCell>
        <mxCell id="SSCyuXy0SERKJgrXDmF3-39" value="Proceed to payment" style="rounded=1;whiteSpace=wrap;html=1;fontSize=12;glass=0;strokeWidth=1;shadow=0;" parent="WIyWlLk6GJQsqaUBKTNV-1" vertex="1">
          <mxGeometry x="-870" y="830" width="120" height="40" as="geometry" />
        </mxCell>
        <mxCell id="SSCyuXy0SERKJgrXDmF3-40" value="d" style="rounded=1;whiteSpace=wrap;html=1;fontSize=12;glass=0;strokeWidth=1;shadow=0;" parent="WIyWlLk6GJQsqaUBKTNV-1" vertex="1">
          <mxGeometry x="-880" y="780" width="120" height="40" as="geometry" />
        </mxCell>
        <mxCell id="SSCyuXy0SERKJgrXDmF3-45" value="View cover detals" style="rounded=1;whiteSpace=wrap;html=1;fontSize=12;glass=0;strokeWidth=1;shadow=0;" parent="WIyWlLk6GJQsqaUBKTNV-1" vertex="1">
          <mxGeometry x="-350" y="830" width="120" height="40" as="geometry" />
        </mxCell>
        <mxCell id="SSCyuXy0SERKJgrXDmF3-68" value="" style="edgeStyle=orthogonalEdgeStyle;rounded=0;orthogonalLoop=1;jettySize=auto;html=1;" parent="WIyWlLk6GJQsqaUBKTNV-1" source="SSCyuXy0SERKJgrXDmF3-46" edge="1">
          <mxGeometry relative="1" as="geometry">
            <mxPoint x="-150" y="860" as="targetPoint" />
          </mxGeometry>
        </mxCell>
        <mxCell id="SSCyuXy0SERKJgrXDmF3-46" value="Fill Motor cover detailsa" style="rounded=1;whiteSpace=wrap;html=1;fontSize=12;glass=0;strokeWidth=1;shadow=0;" parent="WIyWlLk6GJQsqaUBKTNV-1" vertex="1">
          <mxGeometry x="-220" y="670" width="120" height="40" as="geometry" />
        </mxCell>
        <mxCell id="SSCyuXy0SERKJgrXDmF3-67" value="" style="edgeStyle=orthogonalEdgeStyle;rounded=0;orthogonalLoop=1;jettySize=auto;html=1;" parent="WIyWlLk6GJQsqaUBKTNV-1" source="SSCyuXy0SERKJgrXDmF3-47" target="SSCyuXy0SERKJgrXDmF3-46" edge="1">
          <mxGeometry relative="1" as="geometry" />
        </mxCell>
        <mxCell id="SSCyuXy0SERKJgrXDmF3-47" value="Choose Motor Cover plan" style="rounded=1;whiteSpace=wrap;html=1;fontSize=12;glass=0;strokeWidth=1;shadow=0;" parent="WIyWlLk6GJQsqaUBKTNV-1" vertex="1">
          <mxGeometry x="-220" y="550" width="120" height="40" as="geometry" />
        </mxCell>
        <mxCell id="SSCyuXy0SERKJgrXDmF3-66" value="" style="edgeStyle=orthogonalEdgeStyle;rounded=0;orthogonalLoop=1;jettySize=auto;html=1;" parent="WIyWlLk6GJQsqaUBKTNV-1" source="SSCyuXy0SERKJgrXDmF3-48" target="SSCyuXy0SERKJgrXDmF3-47" edge="1">
          <mxGeometry relative="1" as="geometry" />
        </mxCell>
        <mxCell id="SSCyuXy0SERKJgrXDmF3-48" value="Motor Vehicle Insurance" style="rounded=1;whiteSpace=wrap;html=1;fontSize=12;glass=0;strokeWidth=1;shadow=0;" parent="WIyWlLk6GJQsqaUBKTNV-1" vertex="1">
          <mxGeometry x="-220" y="430" width="120" height="40" as="geometry" />
        </mxCell>
        <mxCell id="SSCyuXy0SERKJgrXDmF3-49" value="Travel Insurance" style="rounded=1;whiteSpace=wrap;html=1;fontSize=12;glass=0;strokeWidth=1;shadow=0;" parent="WIyWlLk6GJQsqaUBKTNV-1" vertex="1">
          <mxGeometry x="-50" y="380" width="120" height="40" as="geometry" />
        </mxCell>
        <mxCell id="SSCyuXy0SERKJgrXDmF3-50" value="Home insurance" style="rounded=1;whiteSpace=wrap;html=1;fontSize=12;glass=0;strokeWidth=1;shadow=0;" parent="WIyWlLk6GJQsqaUBKTNV-1" vertex="1">
          <mxGeometry x="-220" y="230" width="120" height="40" as="geometry" />
        </mxCell>
        <mxCell id="SSCyuXy0SERKJgrXDmF3-59" value="" style="edgeStyle=orthogonalEdgeStyle;rounded=0;orthogonalLoop=1;jettySize=auto;html=1;" parent="WIyWlLk6GJQsqaUBKTNV-1" source="SSCyuXy0SERKJgrXDmF3-56" target="SSCyuXy0SERKJgrXDmF3-50" edge="1">
          <mxGeometry relative="1" as="geometry" />
        </mxCell>
        <mxCell id="SSCyuXy0SERKJgrXDmF3-60" value="" style="edgeStyle=orthogonalEdgeStyle;rounded=0;orthogonalLoop=1;jettySize=auto;html=1;" parent="WIyWlLk6GJQsqaUBKTNV-1" source="SSCyuXy0SERKJgrXDmF3-56" edge="1">
          <mxGeometry relative="1" as="geometry">
            <mxPoint x="-60" y="330" as="targetPoint" />
          </mxGeometry>
        </mxCell>
        <mxCell id="SSCyuXy0SERKJgrXDmF3-63" value="" style="edgeStyle=orthogonalEdgeStyle;rounded=0;orthogonalLoop=1;jettySize=auto;html=1;" parent="WIyWlLk6GJQsqaUBKTNV-1" source="SSCyuXy0SERKJgrXDmF3-56" target="SSCyuXy0SERKJgrXDmF3-48" edge="1">
          <mxGeometry relative="1" as="geometry" />
        </mxCell>
        <mxCell id="SSCyuXy0SERKJgrXDmF3-56" value="General" style="rounded=1;whiteSpace=wrap;html=1;fontSize=12;glass=0;strokeWidth=1;shadow=0;" parent="WIyWlLk6GJQsqaUBKTNV-1" vertex="1">
          <mxGeometry x="-220" y="310" width="120" height="40" as="geometry" />
        </mxCell>
        <mxCell id="SSCyuXy0SERKJgrXDmF3-61" value="Individual" style="text;strokeColor=none;align=center;fillColor=none;html=1;verticalAlign=middle;whiteSpace=wrap;rounded=0;" parent="WIyWlLk6GJQsqaUBKTNV-1" vertex="1">
          <mxGeometry x="-360" y="300" width="60" height="30" as="geometry" />
        </mxCell>
      </root>
    </mxGraphModel>
  </diagram>
</mxfile>
